<svg width="48" height="48" viewBox="0 0 48 48" fill="none" xmlns="http://www.w3.org/2000/svg">
<circle cx="24" cy="24" r="24" fill="black"/>
<path d="M23.9551 34.4011C23.9551 34.1311 24.2771 33.9914 24.5645 34.1394C24.6466 34.1828 24.682 34.2269 24.6689 34.2703C24.6389 34.3477 24.6415 34.3476 24.499 34.2742C24.3337 34.1872 24.1553 34.2439 24.1377 34.3875C24.1249 34.4912 24.1561 34.5189 24.4209 34.6492C24.6986 34.7837 24.7164 34.8016 24.7295 34.9539C24.7466 35.1708 24.6814 35.2806 24.499 35.3328C24.2338 35.4066 23.8168 35.2412 23.9414 35.115C23.9762 35.0802 24.0158 35.0842 24.0898 35.1365C24.2377 35.2359 24.4595 35.227 24.5381 35.1101C24.6249 34.9841 24.568 34.8927 24.3379 34.7927C24.0644 34.6755 23.9557 34.5615 23.9551 34.4011ZM25.9707 34.031C26.0532 34.0312 26.097 34.1052 26.2578 34.5007C26.3622 34.7574 26.4764 35.0323 26.5068 35.1062C26.5629 35.2399 26.5621 35.2497 26.4756 35.2498C26.4106 35.2496 26.3664 35.2012 26.3145 35.0759L26.249 34.8972L26.0273 34.9099C25.8097 34.923 25.8057 34.9277 25.7578 35.0974C25.7317 35.197 25.6787 35.276 25.6396 35.2849C25.5442 35.3022 25.544 35.2699 25.6699 34.7966C25.7307 34.5796 25.8008 34.3187 25.8271 34.2136C25.8663 34.07 25.8924 34.031 25.9707 34.031ZM21.3203 33.9958C21.3421 33.9349 21.399 33.9303 21.7734 33.9695C21.9905 33.9956 22.0391 34.0136 22.0391 34.0789C22.0387 34.1472 22.0062 34.1565 21.7559 34.1306C21.4991 34.1089 21.4731 34.1133 21.4688 34.1873C21.4686 34.231 21.4592 34.3135 21.4463 34.3611C21.4335 34.443 21.4564 34.4577 21.6689 34.488C21.8425 34.5098 21.9082 34.5359 21.9082 34.5837C21.9075 34.6349 21.8585 34.6445 21.6689 34.6316C21.4121 34.6185 21.3858 34.6402 21.3857 34.9099C21.386 35.0309 21.4344 35.0543 21.7988 35.0847C21.8813 35.0935 21.9297 35.1237 21.9297 35.1628C21.9291 35.2314 21.8705 35.2362 21.4551 35.1843L21.1982 35.1541L21.2285 34.8669C21.2848 34.2177 21.3072 34.0491 21.3203 33.9958ZM28.0654 33.8132C28.1045 33.8136 28.1432 33.8569 28.1562 33.9089C28.1787 34.0313 28.3096 34.9283 28.3096 34.989C28.3082 35.0143 28.2691 35.0318 28.2266 35.032C28.1744 35.032 28.0262 34.8875 27.8262 34.6267C27.6548 34.4125 27.499 34.2149 27.4775 34.1921C27.4645 34.1704 27.4646 34.2484 27.4863 34.366C27.5081 34.4794 27.5432 34.6969 27.5605 34.8445C27.5952 35.0957 27.5902 35.1188 27.5166 35.1189C27.474 35.1189 27.4399 35.1057 27.4385 35.0847C27.4385 35.0673 27.3994 34.8095 27.3516 34.5095C27.2472 33.8441 27.2466 33.8915 27.3594 33.9089C27.4249 33.9183 27.5732 34.0708 27.7861 34.3445C27.9627 34.5726 28.1146 34.7544 28.126 34.7537C28.1303 34.745 28.1173 34.6527 28.0957 34.5486C28.074 34.4443 28.0438 34.235 28.0264 34.0828C28.0002 33.852 28.0045 33.8132 28.0654 33.8132ZM19.5391 33.7302C19.5652 33.6562 19.9176 33.704 20.1006 33.8083C20.3481 33.9522 20.4099 34.2832 20.2578 34.6267C20.1403 34.8786 19.965 34.9622 19.626 34.9275C19.4894 34.9147 19.3644 34.8933 19.3516 34.8884C19.3395 34.8657 19.5037 33.8396 19.5391 33.7302ZM19.9053 33.8826C19.6921 33.7999 19.6875 33.7998 19.6875 33.865C19.6826 33.8988 19.6476 34.1159 19.6045 34.3445L19.5264 34.7625L19.6699 34.7927C19.8523 34.823 19.9705 34.7616 20.0791 34.5837C20.1703 34.4361 20.1921 34.1616 20.123 34.0349C20.1013 33.9915 20.0008 33.9218 19.9053 33.8826ZM25.9053 34.488L25.8398 34.7712H26.0098C26.2009 34.7712 26.2008 34.7782 26.0488 34.3875L25.9756 34.2L25.9053 34.488ZM29.6807 33.4861C29.7807 33.4513 29.8679 33.4691 29.8896 33.53C29.9059 33.5728 29.8667 33.5995 29.7334 33.6296C29.6333 33.6514 29.5547 33.687 29.5547 33.7087C29.5605 33.7377 29.6079 33.9655 29.6592 34.2175C29.7329 34.5687 29.7459 34.7005 29.707 34.74C29.6289 34.8177 29.5886 34.7344 29.4844 34.2136L29.3848 33.7175L29.2021 33.7478C29.0643 33.765 29.0111 33.7554 28.9932 33.7087C28.9758 33.6609 29.045 33.6296 29.3018 33.573C29.484 33.534 29.658 33.495 29.6807 33.4861ZM16.7568 32.9773C16.7742 32.9425 16.9002 32.9811 16.9004 33.0203C16.8984 33.04 16.8473 33.2341 16.7832 33.4519C16.653 33.9124 16.6697 34.0659 16.8652 34.1355C17.0693 34.209 17.1749 34.0904 17.3096 33.6345C17.4445 33.1864 17.4837 33.1164 17.5576 33.1902C17.5915 33.226 17.5701 33.3574 17.4707 33.6687C17.3142 34.1773 17.2178 34.2917 16.9482 34.2917C16.7093 34.2917 16.5096 34.1086 16.5088 33.9001C16.5088 33.7829 16.6953 33.0765 16.7568 32.9773ZM32.0762 32.8162C32.1057 32.8212 32.2953 33.0456 32.502 33.321C32.8322 33.7643 32.8767 33.835 32.8115 33.8699C32.7377 33.9127 32.6412 33.8334 32.5371 33.6472C32.5067 33.5952 32.476 33.5908 32.333 33.6384C32.1024 33.7124 32.0754 33.7433 32.0928 33.9304C32.1055 34.0733 32.0534 34.1564 31.958 34.1609C31.9363 34.1598 31.9229 33.8684 31.9229 33.5125C31.9229 32.8637 31.9325 32.8205 32.0762 32.8162ZM15.0107 32.3669C15.0369 32.3236 15.0764 32.3235 15.1416 32.3669C15.1681 32.389 15.2284 32.6491 15.2715 32.9509L15.3506 33.4998L15.5156 33.0642C15.6062 32.8226 15.6889 32.6187 15.7031 32.6023C15.712 32.5937 15.751 32.5932 15.79 32.6062C15.846 32.6323 15.8418 32.6645 15.7637 32.864C15.7156 32.9907 15.6158 33.2472 15.542 33.4294C15.4249 33.7416 15.3371 33.8371 15.2676 33.7253C15.2283 33.6627 15.1157 32.987 15.1152 32.8201C15.1152 32.747 15.102 32.682 15.085 32.6804C15.0632 32.6804 14.9802 32.8681 14.8975 33.0945C14.7847 33.3981 14.723 33.5072 14.6709 33.5076C14.6281 33.5075 14.5938 33.4898 14.5928 33.4685C14.5949 33.4241 14.9698 32.4374 15.0107 32.3669ZM32.0625 33.2595L32.0762 33.5603L32.2061 33.5339C32.275 33.5167 32.3493 33.4908 32.3633 33.4734C32.3806 33.4559 32.3147 33.3332 32.2236 33.2029L32.0498 32.9636L32.0625 33.2595ZM33.9521 32.1101C34.0175 32.0012 34.0957 32.1192 34.3047 32.6287C34.5129 33.1448 34.5227 33.1857 34.4492 33.2205C34.384 33.2507 34.2871 33.1935 33.9834 32.9636C33.7761 32.7995 33.5807 32.6474 33.5479 32.6238C33.5174 32.602 33.5736 32.7679 33.665 32.99C33.8559 33.4325 33.8734 33.5211 33.7695 33.4998C33.726 33.4911 33.6123 33.2769 33.4688 32.9421C33.2601 32.4466 33.2471 32.393 33.3164 32.3582C33.3774 32.3322 33.4957 32.3975 33.8438 32.6628C34.085 32.8438 34.2751 32.9688 34.2617 32.9373C34.2483 32.9017 34.1654 32.7104 34.083 32.5154C33.9966 32.3167 33.9362 32.1344 33.9521 32.1101ZM13.5518 31.6794C13.5705 31.6801 13.7143 31.7367 13.8701 31.8103C14.0435 31.8884 14.157 31.9621 14.1572 32.0056C14.1568 32.0959 14.099 32.088 13.8525 31.9626L13.6387 31.8533L13.5518 32.0144L13.4688 32.1804L13.6826 32.2888C13.8428 32.3711 13.8826 32.4106 13.8525 32.4626C13.8179 32.5142 13.7858 32.5106 13.6172 32.4285L13.417 32.3328L13.3301 32.5066C13.2823 32.5978 13.2432 32.6898 13.2432 32.7029C13.2502 32.7186 13.3562 32.7787 13.4824 32.8376C13.7124 32.9462 13.7651 32.9988 13.6826 33.0466C13.6454 33.067 13.0897 32.8432 13.0293 32.7898C13.0032 32.7594 13.5111 31.6831 13.5518 31.6794ZM17.2314 32.8376C17.3706 32.7637 17.4708 32.7634 17.4971 32.8416C17.5198 32.9108 17.2121 33.0053 17.1533 32.9509C17.1229 32.9205 17.149 32.8854 17.2314 32.8376ZM35.1543 31.531C35.4024 31.4092 35.5597 31.3916 35.7295 31.4656C36.0077 31.5925 36.1817 32.0977 36.0469 32.363C35.9803 32.4805 35.529 32.7722 35.4854 32.7244C35.4767 32.7113 35.346 32.4628 35.1982 32.1716L34.9277 31.6443L35.1543 31.531ZM35.8291 31.8357C35.6986 31.6053 35.5289 31.536 35.3115 31.6228L35.1504 31.6882L35.3672 32.1238L35.585 32.5583L35.7031 32.4851C35.9554 32.3242 35.994 32.1269 35.8291 31.8357ZM11.2871 31.5525C11.7878 30.6687 11.7929 30.6644 11.8887 30.782C11.9272 30.8302 11.9226 30.9359 11.875 31.2302C11.8359 31.4389 11.8057 31.6402 11.8057 31.6707C11.8094 31.7015 11.9652 31.5902 12.1543 31.4226C12.4589 31.1528 12.5198 31.1175 12.5938 31.1609C12.6802 31.2042 12.6766 31.214 12.542 31.4529C12.4636 31.5879 12.3322 31.8226 12.2539 31.9705C12.0849 32.2737 12.0664 32.297 11.9844 32.2498C11.9409 32.2237 11.9764 32.1275 12.1328 31.8494C12.245 31.6508 12.3488 31.4636 12.3633 31.4392C12.3886 31.3922 12.2927 31.4712 11.9717 31.7576C11.7679 31.9396 11.6327 31.9867 11.6318 31.8835C11.6321 31.8563 11.6626 31.6652 11.6973 31.4617C11.7314 31.2611 11.7615 31.0882 11.7627 31.0691C11.7606 31.0599 11.6606 31.2239 11.54 31.4392C11.2843 31.8987 11.313 31.8616 11.2227 31.8269C11.1618 31.8052 11.1699 31.7696 11.2871 31.5525ZM37.1396 30.5037C37.1919 30.5038 37.2882 30.5512 37.3447 30.6121C37.4618 30.7256 37.4922 30.9695 37.4053 31.0564C37.3628 31.1 37.4632 31.179 37.8145 31.3611C37.8878 31.4 37.8889 31.4096 37.8281 31.4617C37.7674 31.5092 37.7138 31.4957 37.4971 31.3787C37.3274 31.2873 37.2051 31.2481 37.1484 31.2654C37.0356 31.3002 37.0395 31.3399 37.1699 31.5486C37.2954 31.7478 37.3051 31.7926 37.2188 31.823C37.1753 31.8401 37.1087 31.7784 37.0264 31.6443C36.8068 31.2955 36.5449 30.8475 36.5391 30.8123C36.5408 30.7421 37.0089 30.504 37.1396 30.5037ZM22.7793 30.7996C22.7793 30.4426 23.14 30.2904 23.3926 30.5427C23.4619 30.6123 23.5232 30.7167 23.5234 30.7732C23.5278 30.83 23.5328 30.9311 23.5371 31.0046C23.5583 31.3132 23.4009 31.6003 23.1836 31.657C23.0536 31.6871 22.8248 31.605 22.8223 31.5271C22.8223 31.4357 22.8703 31.4267 22.9834 31.4832C23.1615 31.5739 23.323 31.4603 23.3711 31.2C23.4015 31.0609 23.3969 31.0614 23.2969 31.1179C23.0318 31.2565 22.7798 31.1035 22.7793 30.7996ZM24.3896 30.821C24.3898 30.473 24.7076 30.2993 24.9688 30.5037C25.151 30.648 25.2044 31.148 25.0654 31.4177C24.9476 31.6477 24.5733 31.7387 24.4336 31.5701C24.4033 31.5311 24.408 31.5003 24.4512 31.4656C24.4946 31.4309 24.5212 31.4269 24.543 31.4617C24.5578 31.483 24.6269 31.5046 24.6953 31.5046C24.834 31.5043 24.9258 31.3996 24.9736 31.1873C25.0041 31.0654 25.004 31.0654 24.8779 31.1306C24.6258 31.2609 24.3902 31.112 24.3896 30.821ZM26.3145 30.4255C26.4842 30.4212 26.6635 30.4247 26.707 30.4421C26.7803 30.4638 26.7807 30.4829 26.6592 30.6912C26.5375 30.9086 26.4716 31.1095 26.415 31.4705C26.393 31.6216 26.3016 31.6903 26.2451 31.6003C26.2066 31.5293 26.3455 30.9739 26.4541 30.782L26.5625 30.5906H26.2803C26.0423 30.5906 26.0015 30.5767 26.001 30.5125C26.001 30.4472 26.0448 30.4342 26.3145 30.4255ZM21.3984 30.49C21.7073 30.4291 21.6904 30.4035 21.6904 30.9822V31.5046H21.7988C21.8682 31.5047 21.908 31.5311 21.9082 31.5701C21.9073 31.6215 21.8362 31.6355 21.5596 31.6355C21.2828 31.6355 21.2118 31.6215 21.2109 31.5701C21.2111 31.5268 21.2593 31.5047 21.3633 31.5046H21.5166V30.6345H21.4072C21.268 30.6345 21.2593 30.5162 21.3984 30.49ZM37.1699 30.6951C37.0961 30.6474 37.0566 30.6558 36.9219 30.7253C36.8306 30.7732 36.7568 30.8217 36.7568 30.8347C36.7604 30.8829 36.9532 31.2 36.9834 31.2C36.9979 31.1987 37.0754 31.1467 37.1484 31.0867C37.3049 30.9519 37.3129 30.7909 37.1699 30.6951ZM23.3496 30.7556C23.2842 30.5513 23.1098 30.4773 23.001 30.6033C22.9359 30.6862 22.9141 30.8611 22.9619 30.948C23.0066 31.0383 23.2066 31.0516 23.3193 30.9695C23.3886 30.9175 23.3928 30.8896 23.3496 30.7556ZM24.9736 30.7908C24.8996 30.5428 24.6996 30.4776 24.582 30.6599C24.4781 30.8164 24.5426 30.9997 24.7119 31.0173C24.8681 31.0344 25.0117 30.9123 24.9736 30.7908ZM38.5596 29.5154C38.5812 29.5243 38.6076 29.5462 38.6162 29.572C38.6167 29.5957 38.5263 29.6775 38.4111 29.7585C38.1852 29.9106 38.1849 29.9245 38.3369 30.1287C38.393 30.2062 38.4039 30.2066 38.5771 30.0896C38.7337 29.9853 38.8467 29.9723 38.8467 30.0593C38.844 30.0779 38.767 30.1391 38.6729 30.199C38.5781 30.2593 38.4996 30.3151 38.498 30.3289C38.5002 30.3448 38.5479 30.4271 38.6074 30.5164C38.7288 30.694 38.7387 30.6945 39.0166 30.4861C39.1905 30.3557 39.2215 30.351 39.252 30.4333C39.2673 30.4731 39.1627 30.5694 38.9727 30.699C38.8111 30.8095 38.6697 30.8957 38.6553 30.8914C38.5386 30.7358 38.0142 29.9658 37.9932 29.9197C37.9738 29.8662 38.4944 29.4937 38.5596 29.5154ZM9.63281 29.2839C9.65028 29.2842 9.68106 29.3107 9.70703 29.3367C9.74014 29.381 9.67051 29.504 9.4502 29.8064C9.28547 30.0318 9.15034 30.2321 9.14941 30.2507C9.1526 30.2699 9.23887 30.3437 9.3457 30.4207C9.45324 30.4982 9.53949 30.5762 9.54102 30.5945C9.54024 30.6977 9.41786 30.6593 9.1709 30.4861L8.89258 30.2859L9.25 29.7849C9.44477 29.5123 9.61799 29.2908 9.63281 29.2839ZM39.9053 28.4216C39.9619 28.3527 40.0411 28.4319 40.3975 28.9099C40.6143 29.1965 40.6408 29.3758 40.502 29.5583C40.4496 29.6235 40.3398 29.6938 40.2529 29.7156C40.0096 29.7849 39.8648 29.6792 39.4346 29.1404C39.3002 28.9713 39.2786 28.9232 39.3301 28.8884C39.3649 28.8667 39.4 28.8489 39.4131 28.8533C39.4291 28.8573 39.5546 29.0034 39.6963 29.1794C39.8396 29.3617 39.9914 29.5279 40.0352 29.5544C40.2306 29.658 40.4571 29.4578 40.3975 29.2322C40.3844 29.1757 40.2576 28.9837 40.1143 28.8054C39.9058 28.5492 39.8623 28.4696 39.9053 28.4216ZM8.35254 28.283C8.36721 28.2844 8.4888 28.3748 8.62695 28.4871C8.76497 28.6036 8.87796 28.7123 8.87109 28.7351C8.84903 28.8254 8.76532 28.7999 8.58789 28.6443L8.39648 28.4832L8.26953 28.6267L8.14355 28.7703L8.31738 28.905C8.41667 28.9785 8.49525 29.057 8.49609 29.075C8.49528 29.1651 8.3823 29.1441 8.22656 29.0232C8.13076 28.9448 8.03943 28.9013 8.02637 28.9187C8.00845 28.9411 7.94725 29.015 7.88672 29.0798L7.77832 29.2019L7.99609 29.3933C8.16465 29.5403 8.19983 29.5931 8.16113 29.6365C8.12192 29.6751 8.05066 29.6406 7.84277 29.4587C7.70172 29.3348 7.59068 29.2179 7.59082 29.1931C7.60818 29.1367 8.32197 28.2885 8.35254 28.283ZM23.3535 28.2527C23.458 28.1395 23.6981 28.1168 23.8896 28.2039C24.015 28.2604 24.0103 28.3565 23.8848 28.3308C23.6676 28.2917 23.5068 28.3088 23.4629 28.3738C23.3895 28.4911 23.4632 28.5874 23.7109 28.696C24.0588 28.8485 24.1459 29.0975 23.9326 29.3064C23.8062 29.4363 23.5446 29.4533 23.3447 29.3494C23.2018 29.2758 23.2019 29.2748 23.2363 29.1843C23.2581 29.1321 23.2925 29.1367 23.4404 29.2107C23.6747 29.3276 23.8449 29.2746 23.8457 29.0886C23.8457 28.9755 23.8148 28.9442 23.6064 28.8357C23.4768 28.7709 23.342 28.6839 23.3145 28.6443C23.2319 28.5313 23.2453 28.3659 23.3535 28.2527ZM27.7949 28.1521C28.0995 28.1521 28.139 28.161 28.126 28.2263C28.1126 28.2906 28.0636 28.3044 27.8604 28.3044C27.7255 28.3045 27.6128 28.3223 27.6084 28.3484C27.6081 28.3722 27.599 28.4584 27.5947 28.531L27.5771 28.6746H27.8125C27.9908 28.6746 28.0479 28.6921 28.0479 28.74C28.0471 28.7871 27.9941 28.8054 27.8301 28.8054C27.6869 28.8054 27.6132 28.8226 27.6084 28.8572C27.6041 28.8887 27.599 28.9888 27.5947 29.075L27.5859 29.241H27.8564C28.0564 29.241 28.1306 29.2585 28.1523 29.3064C28.181 29.3924 28.0499 29.419 27.6992 29.406L27.416 29.3933L27.4121 28.8923C27.4078 28.6192 27.4119 28.3405 27.4248 28.2693C27.4465 28.1521 27.4516 28.1521 27.7949 28.1521ZM25.8838 28.1609C26.0361 28.174 26.2106 28.2174 26.2715 28.2566C26.4189 28.3524 26.4805 28.5057 26.4805 28.7751C26.4801 29.1921 26.301 29.3715 25.875 29.3933L25.6094 29.406V28.1394L25.8838 28.1609ZM22.0039 28.1521C22.3084 28.1521 22.348 28.161 22.335 28.2263C22.3215 28.2907 22.2638 28.3085 22.0479 28.3171L21.7773 28.3308V28.6746H22.0166C22.1992 28.6746 22.2568 28.6878 22.2568 28.74C22.2561 28.7913 22.198 28.8054 22.0166 28.8054H21.7773V29.241H22.0645C22.3124 29.241 22.348 29.2499 22.335 29.3152C22.3214 29.3793 22.263 29.3929 21.9951 29.3972C21.7923 29.4058 21.6611 29.3881 21.6377 29.3582C21.6031 29.2991 21.5993 28.3046 21.6338 28.2126C21.6516 28.1694 21.7477 28.1521 22.0039 28.1521ZM20.0527 28.1521C20.2224 28.1521 20.3228 28.1787 20.4316 28.2527C20.6139 28.3744 20.6884 28.5137 20.6885 28.7527C20.6882 28.9874 20.5971 29.2151 20.458 29.3064C20.3274 29.3885 19.8357 29.4265 19.8047 29.3542C19.7787 29.2806 19.7751 28.2416 19.8008 28.1873C19.8138 28.1699 19.9266 28.1521 20.0527 28.1521ZM19.957 28.7703C19.9701 29.3047 19.9619 29.2882 20.2402 29.2273C20.4706 29.1793 20.5876 28.8263 20.4707 28.5261C20.4225 28.4002 20.2228 28.2832 20.0576 28.283H19.9443L19.957 28.7703ZM25.7832 28.2869C25.7659 28.4799 25.779 29.1974 25.8008 29.2322C25.8462 29.3001 26.1451 29.2143 26.2324 29.1062C26.3454 28.9627 26.3313 28.5791 26.21 28.4392C26.1268 28.3522 25.7884 28.2308 25.7832 28.2869ZM23.8672 26.28C31.2522 26.28 37.2836 26.2885 37.2705 26.3015C37.1746 26.3318 10.6293 26.3317 10.4648 26.3015C10.5218 26.2886 16.5253 26.28 23.8672 26.28ZM36.6084 22.1208C36.6391 22.047 36.8092 22.0602 36.918 22.1472C36.9465 22.1769 37.1328 22.4371 37.3271 22.7351C37.5272 23.0308 37.7019 23.2751 37.7236 23.2751C37.741 23.2707 37.7622 23.0022 37.7666 22.6746L37.7803 22.0779H38.041L38.0498 22.9705C38.0585 23.4617 38.0452 23.8884 38.0234 23.9236C37.993 23.9709 37.9489 23.9762 37.8496 23.946C37.7365 23.9156 37.6448 23.8012 37.3535 23.3621C37.0313 22.87 36.9174 22.7529 36.9043 22.8835C36.9 22.9129 36.8959 23.1669 36.8916 23.4451C36.8873 23.927 36.8823 23.9678 36.7998 23.9939C36.6002 24.0588 36.583 23.9742 36.583 23.0574C36.583 22.5859 36.5954 22.1648 36.6084 22.1208ZM41.2549 22.0642C41.7641 22.0773 41.8731 22.0911 41.8818 22.1433C41.9028 22.2686 41.8197 22.3302 41.6377 22.3259C41.503 22.3216 41.4508 22.3392 41.416 22.4001C41.3901 22.4513 41.3721 22.803 41.3721 23.2273C41.3721 23.9312 41.3677 23.9678 41.2852 23.9939C41.0897 24.0546 41.0674 23.966 41.0674 23.1707C41.0674 22.6532 41.0498 22.4084 41.0156 22.3699C40.9852 22.3395 40.8935 22.3172 40.8066 22.3171C40.6112 22.3171 40.5328 22.2472 40.5928 22.1345C40.632 22.0605 40.6888 22.0555 41.2549 22.0642ZM10.5996 22.0642L11.1748 22.0779V22.1863C11.1747 22.2898 11.1643 22.2953 10.8262 22.3083C10.2862 22.3214 10.2812 22.3263 10.2812 22.5789C10.2814 22.8344 10.3216 22.8656 10.6953 22.8787C10.9912 22.8918 11.1178 22.9661 11.0264 23.075C10.9868 23.1225 10.8685 23.1444 10.6387 23.1531L10.3037 23.1658L10.29 23.4148C10.277 23.7052 10.2697 23.7021 10.8262 23.7195C11.1653 23.7325 11.1748 23.7371 11.1748 23.8416C11.1748 23.949 11.1676 23.9499 10.6738 23.9802C9.90777 24.0281 9.98077 24.1275 9.96777 23.075C9.95912 22.586 9.97297 22.1566 9.99023 22.1169C10.0207 22.0647 10.1338 22.0555 10.5996 22.0642ZM28.8838 22.1082C28.9665 22.0255 29.7189 22.0388 29.9023 22.1257C30.0892 22.2172 30.1816 22.3829 30.1816 22.6482C30.1815 22.8171 30.1595 22.8705 30.0293 23.0007C29.9468 23.0833 29.8771 23.1792 29.877 23.2097C29.8785 23.2468 29.9608 23.4202 30.0557 23.6013C30.1556 23.7838 30.2294 23.9374 30.2207 23.946C30.1723 23.9848 29.9784 24.0056 29.9336 23.9802C29.9075 23.9628 29.8026 23.7925 29.6982 23.6013C29.4939 23.223 29.4666 23.1883 29.3232 23.1882C29.1886 23.1885 29.1367 23.3103 29.1367 23.6365C29.1366 23.94 29.0749 24.0411 28.9189 23.9939C28.8362 23.9678 28.832 23.9312 28.832 23.0613C28.832 22.4195 28.8449 22.1488 28.8838 22.1082ZM21.5244 22.0955C21.6202 22.0345 21.6857 22.052 21.751 22.1521C21.84 22.289 22.3859 23.7827 22.3867 23.8845C22.3859 24.0702 22.1567 24.0097 22.0479 23.7976C21.9739 23.6453 21.9687 23.6456 21.6514 23.6326C21.3991 23.6239 21.3163 23.6367 21.251 23.6931C21.2032 23.7323 21.168 23.7936 21.168 23.824C21.166 23.9065 20.9632 24.0273 20.8848 23.9978C20.8504 23.9849 20.8201 23.9499 20.8193 23.9197C20.8193 23.807 21.4626 22.1452 21.5244 22.0955ZM33.417 22.0642C33.4822 22.0738 33.5704 22.2621 33.8223 22.9568C34.0006 23.4397 34.1312 23.8678 34.1182 23.907C34.0736 24.0142 33.8402 23.9703 33.8389 23.8582C33.8385 23.8234 33.7993 23.7583 33.752 23.7107C33.6823 23.6411 33.608 23.6238 33.334 23.6238H33.0029L32.9375 23.7937C32.8639 23.9838 32.8153 24.0152 32.6553 23.9851L32.542 23.9626L32.707 23.5017C33.173 22.1997 33.2515 22.0381 33.417 22.0642ZM14.2656 22.0427C14.3962 22.0212 14.7351 22.1296 14.7969 22.2166C14.8271 22.2556 14.8535 22.3043 14.8535 22.3259C14.8512 22.3903 14.6393 22.413 14.4316 22.3699C14.1401 22.3046 14.0088 22.3693 13.9912 22.5867C13.9741 22.7731 14.0275 22.8176 14.3535 22.8611C14.6663 22.9047 14.8367 23.0006 14.915 23.1658C15.058 23.4659 14.9402 23.7886 14.6445 23.9148C14.2749 24.0711 13.7018 23.9446 13.7002 23.7058C13.7002 23.5886 13.7223 23.5887 14.2354 23.6453C14.4654 23.6756 14.519 23.6663 14.5928 23.6013C14.7795 23.4316 14.6485 23.2055 14.3398 23.1619C13.9922 23.114 13.7697 22.9955 13.6953 22.8132C13.5389 22.4434 13.7697 22.1342 14.2656 22.0427ZM6.53223 22.0554C6.94963 22.0554 7.02 22.0691 7.15039 22.156C7.45457 22.3608 7.48116 22.7656 7.20703 23.031L7.05469 23.1794L7.22949 23.532C7.3294 23.7232 7.4082 23.9024 7.4082 23.9285C7.40655 23.958 7.34123 23.9711 7.24707 23.9626C7.08609 23.9496 7.07156 23.936 6.88477 23.5798C6.70669 23.2411 6.67588 23.2101 6.5459 23.197C6.36304 23.1796 6.32761 23.2577 6.32324 23.7234L6.31934 23.9763L6.17969 23.9626L6.03613 23.95L6.02344 23.1013C6.01911 22.6388 6.02329 22.2137 6.03613 22.1521C6.0579 22.0607 6.07966 22.0554 6.53223 22.0554ZM18.0371 22.0554C18.6113 22.0554 18.6379 22.0602 18.6641 22.1472C18.6983 22.2596 18.6501 22.3 18.416 22.3347C18.2898 22.3565 18.2375 22.3917 18.207 22.4744C18.1855 22.5305 18.1681 22.5954 18.168 22.613C18.1721 22.6391 18.1723 22.9501 18.168 23.3103L18.1631 23.9763L18.0234 23.9626L17.8799 23.95L17.8672 23.1658C17.8585 22.6124 17.8404 22.3809 17.8018 22.3523C17.7757 22.3349 17.6798 22.3172 17.5928 22.3171C17.4015 22.3171 17.2978 22.2208 17.3799 22.1208C17.4238 22.0689 17.555 22.0554 18.0371 22.0554ZM24.8516 22.1257C24.882 22.0474 25.0649 22.0302 25.1084 22.1042C25.1253 22.1323 25.1348 22.3951 25.1348 22.6912C25.1305 22.987 25.1477 23.3103 25.1738 23.406C25.235 23.6272 25.3793 23.7322 25.5879 23.6931C25.8485 23.6408 25.888 23.5263 25.9141 22.7527L25.9355 22.0779H26.1973L26.21 22.7742C26.223 23.5612 26.1885 23.6935 25.9189 23.8718C25.7231 24.0021 25.3434 24.0103 25.1387 23.8845C24.8909 23.7322 24.8253 23.5178 24.8252 22.8093C24.8252 22.4725 24.8386 22.169 24.8516 22.1257ZM33.3604 22.6658C33.3386 22.6658 33.2902 22.7661 33.251 22.8923C33.1295 23.3092 33.1736 23.3966 33.4736 23.3445C33.6428 23.3098 33.6429 23.326 33.4824 22.8923C33.4348 22.7712 33.3824 22.6671 33.3604 22.6658ZM21.6162 22.6785C21.5943 22.6703 21.5336 22.7965 21.4814 22.9617C21.4297 23.1257 21.3863 23.2689 21.3857 23.2878C21.3924 23.33 21.8097 23.3218 21.8389 23.2791C21.8676 23.2281 21.6734 22.6992 21.6162 22.6785ZM29.8594 22.7224C29.9377 22.4263 29.5802 22.2214 29.2275 22.365C29.1366 22.3997 29.1282 22.4266 29.1543 22.5701C29.1673 22.657 29.1797 22.7749 29.1797 22.8269C29.1799 22.9128 29.2031 22.9265 29.3721 22.9265C29.6452 22.9264 29.8281 22.8522 29.8594 22.7224ZM7.00293 22.4304C6.94202 22.3478 6.60269 22.2958 6.44141 22.3435C6.39798 22.3566 6.35848 22.4086 6.3584 22.4607C6.3455 22.6607 6.37601 22.8615 6.42383 22.8962C6.49557 22.9476 6.91132 22.9094 6.99023 22.8445C7.07268 22.7749 7.0806 22.5354 7.00293 22.4304ZM31.4707 15.5935C31.5068 15.4981 31.9975 15.4983 32.1279 15.5896C32.1814 15.6266 32.3944 15.9266 32.6025 16.2517C33.4079 17.516 34.0548 18.4837 34.083 18.4724C34.0961 18.4594 34.1088 17.8619 34.1045 17.1482C34.1045 16.4367 34.1184 15.7844 34.1357 15.698L34.1699 15.5457H34.8193L34.832 17.7449C34.8451 20.2033 34.8618 20.0526 34.5312 20.0525C34.2356 20.0524 34.1607 19.9906 33.8564 19.5212C32.5054 17.4274 32.2122 16.998 32.1807 17.074C32.1591 17.1275 32.1451 17.7835 32.1494 18.5417C32.1494 19.5469 32.1364 19.9444 32.1016 19.9792C32.0699 20.0094 31.9436 20.0314 31.8184 20.0271C31.4052 20.0229 31.4443 20.2465 31.4443 17.8142C31.4443 16.6374 31.4577 15.6444 31.4707 15.5935ZM15.3809 15.6111C15.7206 15.4893 16.3347 15.4941 16.6699 15.616C17.1224 15.7861 17.5403 16.3042 17.5664 16.7263L17.5752 16.8962L17.2969 16.9089C16.9794 16.922 16.8998 16.8775 16.7607 16.5779C16.665 16.3779 16.5296 16.2646 16.2949 16.1863C15.9031 16.0514 15.4465 16.2301 15.2637 16.5828C15.0594 16.9717 15.0635 18.6115 15.2637 18.9988C15.3595 19.1812 15.5252 19.3129 15.7295 19.3738C16.2034 19.5125 16.6091 19.3251 16.8398 18.8689L16.9482 18.655L17.2617 18.6677L17.5752 18.6814L17.5664 18.8337C17.5529 19.0384 17.4048 19.3647 17.2354 19.5603C16.948 19.8866 16.5297 20.0524 15.9814 20.0525C15.5377 20.0525 15.2149 19.9343 14.9277 19.6648C14.5014 19.2644 14.3709 18.7804 14.3926 17.6755C14.4013 17.2936 14.4319 16.8759 14.458 16.7439C14.5669 16.204 14.9107 15.781 15.3809 15.6111ZM39.9229 15.5242C40.0619 15.5242 40.201 15.5419 40.2314 15.5593C40.2924 15.6307 41.8516 19.8576 41.8516 19.9617C41.8511 19.9869 41.8381 20.0088 41.8213 20.0134C41.7995 20.0134 41.703 20.0224 41.5986 20.0398C41.4944 20.0528 41.3464 20.0489 41.2637 20.0359C41.1245 20.0098 41.1107 19.991 40.9805 19.6003C40.907 19.3755 40.8157 19.1803 40.7803 19.1648C40.6932 19.13 39.2223 19.13 39.1338 19.1648C39.0985 19.1799 39.016 19.3491 38.9512 19.5437C38.8903 19.7392 38.8117 19.9264 38.7812 19.9568C38.6717 20.0779 38.0669 20.0732 38.0635 19.9568C38.0675 19.8892 39.5001 15.9141 39.6084 15.6638C39.6694 15.5288 39.6834 15.5242 39.9229 15.5242ZM36.6953 15.5242C36.9995 15.5242 37.0095 15.5285 37.0312 15.6414C37.0443 15.719 37.0576 16.6918 37.0576 17.8142C37.0576 19.4279 37.0445 19.8827 37.001 19.9441C36.9348 20.0307 36.5874 20.0693 36.4219 20.0046L36.3213 19.9705V17.7751C36.3213 16.579 36.3344 15.5834 36.3516 15.5544C36.3649 15.5371 36.5215 15.5242 36.6953 15.5242ZM19.7217 15.5896C19.9787 15.4895 20.7406 15.5244 21.0107 15.6462C21.3544 15.803 21.5816 16.0165 21.7383 16.3298C21.8685 16.5946 21.8778 16.6532 21.9082 17.2751C21.9429 17.9792 21.9343 18.1633 21.8604 18.7244C21.7775 19.342 21.5509 19.6831 21.0723 19.905C20.8243 20.0181 20.7534 20.031 20.3184 20.031C19.8926 20.031 19.8131 20.0179 19.5918 19.9138C19.2917 19.7746 18.9733 19.4643 18.8467 19.1902C18.7555 18.9947 18.7515 18.9275 18.7559 17.7888C18.7559 16.6891 18.7643 16.5733 18.8467 16.3953C19.0034 16.0427 19.3388 15.7334 19.7217 15.5896ZM27.29 16.0076C27.6906 15.5634 28.3437 15.3984 29.0273 15.5769C29.419 15.6772 29.7682 15.9731 29.9336 16.3474C30.0726 16.6655 30.1384 17.2364 30.1123 17.9539C30.0862 18.7369 30.0337 19.0517 29.8857 19.3259C29.7464 19.5867 29.5411 19.7698 29.2236 19.9177C29.0105 20.0177 28.9312 20.031 28.5049 20.031C28.0831 20.031 27.999 20.0176 27.7861 19.9177C27.4948 19.7828 27.1772 19.473 27.042 19.199C26.9246 18.9507 26.8763 18.406 26.9023 17.5144C26.9241 16.596 26.9899 16.3426 27.29 16.0076ZM11.5273 15.5632C11.6625 15.5156 11.9318 15.5464 11.9971 15.616C12.0282 15.6529 12.1199 15.8521 12.1934 16.0681C12.2724 16.2833 12.6071 17.2064 12.9375 18.115C13.2683 19.0247 13.5563 19.8222 13.5693 19.8875L13.5996 20.0095H13.3604C12.9645 20.0095 12.9204 19.9735 12.79 19.5828C12.7251 19.3922 12.6375 19.2054 12.5938 19.1648C12.5285 19.1082 12.3934 19.0945 11.7451 19.0945C11.3192 19.0945 10.9364 19.1124 10.8916 19.1384C10.8437 19.165 10.7648 19.3259 10.6953 19.5388C10.6301 19.7387 10.547 19.9267 10.5078 19.9529C10.411 20.0303 9.89537 20.0256 9.88965 19.9529C9.88965 19.9224 10.156 19.164 10.4824 18.2673C10.8087 17.3712 11.1569 16.4 11.2617 16.116C11.3877 15.7553 11.4708 15.5854 11.5273 15.5632ZM6.48438 15.572C6.59324 15.5068 6.85488 15.5151 6.95508 15.5847C7.03281 15.6456 7.03786 15.7342 7.05957 17.5144L7.08105 19.3777L8.07812 19.3914C8.72675 19.3957 9.09753 19.4175 9.13672 19.448C9.17097 19.4797 9.19336 19.5883 9.19336 19.7263C9.19331 19.9253 9.17979 19.9571 9.09766 19.9832C8.92274 20.0265 6.59251 20.0131 6.48926 19.9656C6.41089 19.922 6.40625 19.8468 6.40625 17.7664C6.40625 15.7676 6.41077 15.6116 6.48438 15.572ZM23.6543 15.5242C23.8841 15.5242 23.9497 15.5373 23.9717 15.5935C23.9889 15.6439 23.998 16.4896 23.998 17.4753C23.9937 18.5149 24.0115 19.2985 24.0332 19.321C24.0619 19.3426 24.4901 19.3605 24.9863 19.3562C25.5168 19.3562 25.9481 19.3731 26.0186 19.3992C26.1312 19.4382 26.1361 19.4571 26.123 19.7136L26.1104 19.9871L24.7432 20.0007C23.7803 20.0094 23.3644 19.9959 23.3193 19.9617C23.2367 19.8921 23.2283 15.6737 23.3105 15.5769C23.341 15.5464 23.4845 15.5242 23.6543 15.5242ZM28.4834 16.1335C28.4225 16.1379 28.2959 16.1642 28.2002 16.199C27.9217 16.2991 27.7255 16.5431 27.6602 16.8738C27.5907 17.2104 27.591 18.498 27.6562 18.7419C27.8091 19.3116 28.423 19.5817 28.9277 19.3035C29.293 19.1032 29.4066 18.7496 29.4023 17.8015C29.398 17.2103 29.3406 16.7569 29.2451 16.5691C29.1188 16.3211 28.7837 16.1294 28.4834 16.1335ZM20.9111 16.3904C20.6891 16.1684 20.4188 16.0992 20.0967 16.1775C19.8529 16.2341 19.6567 16.3866 19.5479 16.6042C19.4524 16.7995 19.4482 16.8581 19.4482 17.7234C19.4483 18.2237 19.465 18.7121 19.4824 18.8035C19.5266 19.0079 19.7358 19.2517 19.9443 19.3386C20.1837 19.4384 20.5237 19.4257 20.7412 19.3083C21.1198 19.0951 21.1894 18.8499 21.1895 17.7449C21.1851 16.888 21.1283 16.6037 20.9111 16.3904ZM11.7627 16.656C11.7409 16.656 11.7054 16.691 11.6836 16.7302C11.6508 16.798 11.2778 17.8518 11.0869 18.4246C11.049 18.5412 11.1849 18.572 11.749 18.572C12.2506 18.572 12.3318 18.5629 12.3584 18.4988C12.3887 18.4165 11.8241 16.6736 11.7627 16.656ZM39.9531 16.7517C39.8776 16.848 39.3255 18.4509 39.3516 18.49C39.3945 18.5411 40.5216 18.5412 40.5625 18.49C40.5756 18.4682 40.4539 18.0538 40.293 17.571C40.076 16.9244 39.9839 16.71 39.9531 16.7517ZM27.6816 14.1218C27.7121 14.0783 28.195 14.0828 28.3262 14.1306C28.4359 14.1728 28.8398 15.0535 28.7705 15.0974C28.666 15.1666 28.4012 15.1315 28.292 15.032C28.1403 14.8976 27.6558 14.1754 27.6816 14.1218Z" fill="white"/>
</svg>
