<svg width="150" height="89" viewBox="0 0 150 89" fill="none" xmlns="http://www.w3.org/2000/svg">
<path d="M75.0059 84.9414C75.0059 83.8125 76.3539 83.2301 77.5557 83.8486C77.9015 84.0306 78.0475 84.2125 77.9932 84.3945C77.866 84.7216 77.8828 84.7225 77.2822 84.4131C76.5904 84.0496 75.8433 84.286 75.7705 84.8867C75.7161 85.3231 75.8455 85.4338 76.9551 85.9795C78.1201 86.5438 78.1934 86.6168 78.248 87.2539C78.3208 88.1643 78.0471 88.6203 77.2822 88.8389C76.1717 89.1472 74.4258 88.4555 74.9512 87.9277C75.0968 87.7822 75.2612 87.8014 75.5703 88.0195C76.1891 88.4381 77.1178 88.4008 77.4463 87.9102C77.8105 87.382 77.5737 86.999 76.6084 86.5801C75.4623 86.0887 75.0061 85.6147 75.0059 84.9414ZM83.4385 83.3936C83.7844 83.3936 83.9669 83.7034 84.6406 85.3604C85.0775 86.4344 85.551 87.5816 85.6787 87.8916C85.9154 88.4559 85.915 88.4922 85.5508 88.4922C85.2785 88.4915 85.0951 88.2907 84.877 87.7637L84.6035 87.0176L83.6748 87.0723C82.7658 87.1268 82.7461 87.1456 82.5459 87.8555C82.4366 88.2736 82.2184 88.6019 82.0547 88.6387C81.6553 88.711 81.6542 88.5809 82.1816 86.5986C82.4364 85.6886 82.7275 84.5959 82.8369 84.1582C83.0006 83.558 83.1116 83.394 83.4385 83.3936ZM63.9873 83.2471C64.0784 82.9924 64.3172 82.974 65.8818 83.1377C66.7922 83.247 66.9922 83.3206 66.9922 83.5938C66.992 83.8845 66.8641 83.9207 65.8086 83.8115C64.7353 83.7206 64.6247 83.7393 64.6064 84.0488C64.6064 84.2311 64.5702 84.5772 64.5156 84.7773C64.4612 85.1227 64.5536 85.1784 65.4443 85.3057C66.1728 85.3967 66.4463 85.5057 66.4463 85.7061C66.4461 85.9243 66.2453 85.9609 65.4443 85.9062C64.371 85.8518 64.2607 85.9436 64.2607 87.0723C64.2609 87.5816 64.4631 87.6734 65.9912 87.8008C66.3367 87.8372 66.5368 87.9643 66.5371 88.1279C66.5369 88.419 66.2995 88.4382 64.5518 88.2197L63.4775 88.0918L63.6045 86.8896C63.841 84.1606 63.9327 83.4663 63.9873 83.2471ZM92.1982 82.4824C92.362 82.4824 92.5263 82.6645 92.5811 82.8828C92.6722 83.3754 93.2181 87.1406 93.2188 87.3994C93.2184 87.5085 93.054 87.582 92.8721 87.582C92.6521 87.579 92.0328 86.9784 91.1973 85.8887C90.4702 84.9798 89.815 84.1427 89.7402 84.0674C89.6858 83.9777 89.6855 84.305 89.7764 84.7959C89.8674 85.2696 90.0131 86.1799 90.0859 86.7988C90.2315 87.8543 90.2134 87.9462 89.9043 87.9463C89.7232 87.946 89.5768 87.8913 89.5762 87.8008C89.5762 87.7279 89.4122 86.653 89.2119 85.3965C88.7752 82.6127 88.7759 82.8098 89.248 82.8828C89.5212 82.9192 90.141 83.5571 91.0332 84.7041C91.771 85.6578 92.403 86.4156 92.4531 86.416C92.4712 86.3789 92.4171 85.997 92.3262 85.5605C92.2351 85.1235 92.108 84.2487 92.0352 83.6113C91.9262 82.6484 91.9448 82.4831 92.1982 82.4824ZM56.5381 82.1367C56.6473 81.8273 58.1224 82.0272 58.8877 82.4639C59.9258 83.0649 60.1814 84.4499 59.5439 85.8887C59.0522 86.9442 58.3225 87.2902 56.9023 87.1445C56.3202 87.0899 55.7913 86.9996 55.7549 86.9814C55.7029 86.8942 56.3919 82.579 56.5381 82.1367ZM58.0684 82.7734C57.177 82.4278 57.1582 82.4281 57.1582 82.7012C57.1396 82.8308 56.9934 83.7404 56.8115 84.7041L56.4834 86.4531L57.085 86.5801C57.8496 86.7075 58.3417 86.4521 58.7969 85.7061C59.1793 85.0869 59.2698 83.9393 58.9785 83.4111C58.8867 83.229 58.4685 82.9371 58.0684 82.7734ZM83.165 85.3057L82.8916 86.4893H83.6025C84.4035 86.4893 84.4038 86.5252 83.7666 84.8867L83.457 84.1035L83.165 85.3057ZM98.9551 81.1162C99.3738 80.9706 99.7388 81.0441 99.8301 81.2988C99.9025 81.4807 99.7379 81.5904 99.1738 81.7178C98.7564 81.8087 98.4289 81.9539 98.4277 82.0449C98.4463 82.1376 98.646 83.1025 98.8643 84.1758C99.1738 85.6506 99.2283 86.1973 99.0645 86.3613C98.7372 86.6878 98.5724 86.3416 98.1357 84.1582L97.7168 82.082L96.9521 82.209C96.3705 82.2816 96.151 82.2449 96.0781 82.0449C96.0061 81.845 96.2987 81.7168 97.3711 81.4805C98.1322 81.3174 98.8582 81.1537 98.9551 81.1162ZM44.9004 78.9854C44.9735 78.8399 45.502 79.0041 45.502 79.168C45.5006 79.2272 45.2821 80.0448 45.0098 80.9707C44.4638 82.8999 44.5379 83.5385 45.3564 83.8301C46.2121 84.1394 46.6494 83.6469 47.2139 81.7354C47.7781 79.8608 47.9427 79.5691 48.252 79.8779C48.3976 80.0237 48.3066 80.5706 47.8877 81.8818C47.2322 84.0118 46.8311 84.4863 45.7021 84.4863C44.7011 84.4857 43.8625 83.7204 43.8623 82.8467C43.8624 82.3551 44.6449 79.3892 44.9004 78.9854ZM108.973 78.3115C109.083 78.3135 109.884 79.2606 110.757 80.4248C112.141 82.2824 112.323 82.574 112.05 82.7197C111.74 82.8998 111.34 82.5717 110.903 81.79C110.776 81.5719 110.647 81.5537 110.047 81.7539C109.083 82.0632 108.972 82.1919 109.045 82.9746C109.099 83.5752 108.881 83.9212 108.48 83.9395C108.39 83.9276 108.335 82.7115 108.335 81.2256C108.335 78.514 108.373 78.33 108.973 78.3115ZM37.5977 76.4355C37.7068 76.254 37.8712 76.2543 38.1436 76.4355C38.2528 76.5084 38.5083 77.6013 38.6904 78.876L39.0186 81.1709L39.71 79.3496C40.0906 78.3345 40.4361 77.4806 40.4932 77.4189C40.5298 77.3828 40.6941 77.3833 40.8574 77.4375C41.0942 77.5468 41.0758 77.6742 40.748 78.5117C40.5476 79.0401 40.1288 80.1153 39.8193 80.8799C39.3278 82.1904 38.9632 82.5914 38.6719 82.1182C38.5077 81.8598 38.0344 79.0223 38.0342 78.3301C38.0342 78.0206 37.98 77.7473 37.9072 77.7471C37.8143 77.7541 37.4685 78.5348 37.124 79.4775C36.6507 80.7518 36.3953 81.208 36.1768 81.208C35.9957 81.2076 35.8493 81.1345 35.8486 81.0439C35.8486 80.8802 37.4311 76.716 37.5977 76.4355ZM108.918 80.1699L108.973 81.4258L109.519 81.3174C109.809 81.2448 110.118 81.1344 110.175 81.0615C110.246 80.9871 109.973 80.4778 109.592 79.9326L108.863 78.9307L108.918 80.1699ZM116.822 75.3613C117.095 74.9064 117.423 75.3984 118.297 77.5283C119.171 79.6951 119.208 79.8602 118.898 80.0059C118.625 80.1321 118.222 79.8946 116.949 78.9307C116.075 78.2389 115.255 77.6018 115.128 77.5107C115.002 77.4226 115.238 78.1131 115.62 79.04C116.421 80.8976 116.494 81.262 116.057 81.1709C115.873 81.1299 115.4 80.2382 114.801 78.8398C113.928 76.7666 113.873 76.5451 114.163 76.3994C114.418 76.2904 114.91 76.5646 116.366 77.6748C117.386 78.4395 118.187 78.9665 118.115 78.8213C118.06 78.6739 117.714 77.873 117.368 77.0547C117.005 76.2197 116.752 75.456 116.822 75.3613ZM31.4961 73.5586C31.5689 73.5586 32.1709 73.7951 32.8262 74.1045C33.5539 74.432 34.0275 74.7417 34.0283 74.9238C34.0282 75.3059 33.7907 75.2702 32.7529 74.7422L31.8604 74.2871L31.4961 74.9609L31.1504 75.6523L32.043 76.1084C32.7166 76.4543 32.8804 76.6184 32.7529 76.8369C32.6075 77.0544 32.4787 77.0359 31.7695 76.6904L30.9316 76.29L30.4268 77.2998C30.2965 77.5706 30.2037 77.7958 30.2031 77.8379C30.2049 77.8932 30.6602 78.149 31.2051 78.4033C32.17 78.8585 32.3888 79.077 32.043 79.2773C31.887 79.3632 29.5467 78.4202 29.3105 78.2021C29.2106 78.058 31.3216 73.5848 31.4961 73.5586ZM46.8857 78.4033C47.4683 78.0938 47.8876 78.0935 47.9971 78.4209C48.1057 78.7123 46.7944 79.1127 46.5576 78.876C46.4317 78.7489 46.5416 78.6028 46.8857 78.4033ZM121.849 72.9395C122.886 72.4297 123.543 72.3569 124.253 72.666C125.418 73.1944 126.147 75.3071 125.582 76.418C125.307 76.9103 123.397 78.1474 123.232 77.9297C123.194 77.8703 122.648 76.8334 122.03 75.6162L120.901 73.4131L121.849 72.9395ZM124.672 74.2139C124.126 73.2489 123.414 72.9571 122.504 73.3213L121.83 73.5947L122.741 75.416L123.651 77.2373L124.144 76.9277C125.2 76.2539 125.364 75.4339 124.672 74.2139ZM22.0254 73.0303C24.1192 69.3343 24.1388 69.3154 24.5391 69.8066C24.7029 70.007 24.6847 70.4443 24.4844 71.6826C24.3207 72.5555 24.1937 73.3925 24.1934 73.5215C24.1944 73.666 24.8501 73.1927 25.6504 72.4834C26.9233 71.356 27.1802 71.2096 27.4893 71.3906C27.8535 71.5727 27.836 71.6098 27.2715 72.6113C26.9437 73.1759 26.397 74.1594 26.0693 74.7783C25.3595 76.0524 25.2854 76.1446 24.9395 75.9443C24.7589 75.8342 24.9045 75.4314 25.5586 74.2686C26.0307 73.4332 26.4677 72.6514 26.5244 72.5566C26.6335 72.3565 26.2323 72.6839 24.8848 73.8857C24.0295 74.6498 23.4651 74.8506 23.4648 74.4141C23.4651 74.3037 23.5918 73.5025 23.7373 72.6475C23.8825 71.7943 24.0099 71.0675 24.0107 71.0088C24.0107 70.9542 23.592 71.646 23.082 72.5566C22.0083 74.4858 22.135 74.3234 21.7529 74.1777C21.4991 74.0867 21.5348 73.9388 22.0254 73.0303ZM130.153 68.6406C130.372 68.6406 130.773 68.8419 131.01 69.0967C131.501 69.5703 131.629 70.5899 131.265 70.9541C131.085 71.1364 131.504 71.465 132.977 72.2285C133.286 72.3924 133.286 72.4291 133.031 72.6475C132.777 72.8469 132.556 72.7929 131.646 72.3018C130.937 71.9197 130.426 71.7553 130.189 71.8281C129.718 71.9737 129.736 72.1389 130.281 73.0117C130.809 73.8492 130.845 74.0317 130.481 74.1592C130.299 74.2304 130.025 73.9762 129.68 73.4131C128.753 71.9414 127.645 70.0519 127.64 69.9346C127.64 69.6434 129.605 68.6423 130.153 68.6406ZM70.0889 69.8799C70.0889 68.3868 71.6 67.7494 72.6562 68.8047C72.9476 69.0961 73.2031 69.5337 73.2031 69.7705C73.2213 70.0074 73.2396 70.426 73.2578 70.7354C73.3487 72.0283 72.6928 73.231 71.7822 73.4678C71.2358 73.5942 70.2712 73.2483 70.2705 72.9209C70.2705 72.5387 70.4715 72.503 70.9443 72.7393C71.6909 73.1217 72.365 72.647 72.5654 71.5547C72.6929 70.9722 72.6747 70.9723 72.2559 71.209C71.1456 71.7906 70.0893 71.1538 70.0889 69.8799ZM76.8271 69.9707C76.8271 68.5142 78.1565 67.786 79.249 68.6406C80.0139 69.2416 80.2332 71.3366 79.6504 72.4658C79.1583 73.4302 77.5927 73.8129 77.0098 73.1035C76.8829 72.9401 76.9011 72.8112 77.082 72.666C77.2639 72.5205 77.3738 72.5023 77.4648 72.6475C77.5196 72.7384 77.8117 72.8298 78.1025 72.8301C78.685 72.8299 79.0673 72.3918 79.2676 71.5C79.395 70.9904 79.3952 70.9906 78.8672 71.2637C77.8114 71.8089 76.8274 71.1901 76.8271 69.9707ZM84.877 68.3135C85.586 68.2953 86.3328 68.3132 86.5166 68.3857C86.826 68.4768 86.826 68.5502 86.3164 69.4238C85.8067 70.3341 85.5326 71.1734 85.2959 72.6846C85.2046 73.3213 84.8226 73.6126 84.5859 73.2305C84.4228 72.9375 85.0049 70.6084 85.46 69.8066L85.915 69.0049H84.7314C83.7317 69.0048 83.5657 68.9502 83.5654 68.6777C83.5654 68.4047 83.7491 68.3499 84.877 68.3135ZM64.3154 68.5859C65.6083 68.331 65.5352 68.2224 65.5352 70.6445V72.8301H65.9912C66.2824 72.8302 66.4463 72.9397 66.4463 73.1035C66.4456 73.3214 66.1533 73.376 64.9893 73.376C63.8261 73.3759 63.5329 73.3213 63.5322 73.1035C63.5322 72.9216 63.7337 72.8303 64.1699 72.8301H64.8066V69.1875H64.3516C63.7705 69.1867 63.7344 68.6956 64.3154 68.5859ZM130.281 69.4424C129.972 69.2426 129.807 69.2792 129.243 69.5703C128.861 69.7705 128.551 69.9708 128.551 70.0254C128.552 70.2091 129.367 71.5461 129.498 71.5547C129.553 71.554 129.881 71.3353 130.189 71.0811C130.845 70.5165 130.882 69.8431 130.281 69.4424ZM72.4746 69.6973C72.2014 68.8416 71.4729 68.5318 71.0176 69.0596C70.745 69.4058 70.6536 70.1349 70.8535 70.499C71.0359 70.8808 71.8731 70.9348 72.3467 70.5898C72.638 70.3713 72.6567 70.2617 72.4746 69.6973ZM79.2676 69.8428C78.9578 68.8051 78.1206 68.5321 77.6289 69.2969C77.1929 69.9519 77.4658 70.7164 78.1748 70.79C78.8304 70.8629 79.4312 70.3527 79.2676 69.8428ZM136.091 64.5068C136.182 64.5432 136.291 64.6342 136.327 64.7432C136.345 64.8346 135.963 65.1807 135.472 65.5264C134.526 66.163 134.525 66.2199 135.162 67.0752C135.398 67.4024 135.437 67.4019 136.164 66.9111C136.82 66.4742 137.293 66.4191 137.293 66.7832C137.292 66.8565 136.964 67.1117 136.564 67.3662C136.165 67.6203 135.838 67.8568 135.836 67.9121C135.837 67.9678 136.037 68.3139 136.291 68.6953C136.801 69.4417 136.838 69.4417 138.003 68.5684C138.731 68.0222 138.859 68.0039 138.986 68.3496C139.059 68.5136 138.622 68.9148 137.821 69.4609C137.13 69.9341 136.528 70.298 136.491 70.2617C135.999 69.6048 133.779 66.3485 133.723 66.2002C133.637 65.9791 135.814 64.4201 136.091 64.5068ZM15.1055 63.541C15.1783 63.5414 15.3061 63.6508 15.415 63.7598C15.5606 63.9419 15.2685 64.4519 14.3398 65.7266C13.648 66.6733 13.083 67.5121 13.083 67.585C13.085 67.6589 13.4496 67.9682 13.9033 68.2949C14.3585 68.6227 14.7226 68.9505 14.7227 69.0234C14.7224 69.4601 14.2124 69.2965 13.1748 68.5684L12.0088 67.7305L13.502 65.6357C14.3161 64.496 15.0423 63.5711 15.1055 63.541ZM141.719 59.9355C141.955 59.6443 142.283 59.9728 143.776 61.9756C144.687 63.1772 144.796 63.9238 144.214 64.6885C143.995 64.9613 143.54 65.2537 143.176 65.3447C142.157 65.6354 141.553 65.1978 139.751 62.9404C139.188 62.2318 139.097 62.0294 139.314 61.8838C139.459 61.7935 139.605 61.7216 139.66 61.7383C139.715 61.7383 140.243 62.3581 140.844 63.1045C141.444 63.8683 142.082 64.5602 142.265 64.6709C143.084 65.1079 144.031 64.2701 143.776 63.3232C143.721 63.0862 143.194 62.2846 142.593 61.5381C141.72 60.4654 141.538 60.1359 141.719 59.9355ZM9.75098 59.3525C9.80759 59.3543 10.3172 59.7368 10.8984 60.209C11.481 60.7006 11.9544 61.156 11.918 61.2471C11.8266 61.6284 11.4804 61.5192 10.7344 60.8643L9.93262 60.1904L9.4043 60.791L8.87598 61.3926L9.60449 61.957C10.0228 62.2662 10.3506 62.5935 10.3516 62.667C10.3513 63.049 9.87791 62.9588 9.22266 62.4492C8.82222 62.1217 8.43943 61.939 8.38477 62.0117C8.31104 62.1038 8.05597 62.4132 7.80176 62.6855L7.34668 63.1953L8.25684 63.9971C8.96705 64.6162 9.11305 64.8345 8.94922 65.0166C8.78516 65.1792 8.49289 65.0332 7.62012 64.2695C7.02082 63.7428 6.54769 63.2519 6.56348 63.1592C6.63607 62.9232 9.62196 59.3773 9.75098 59.3525ZM72.4922 59.2256C72.929 58.7523 73.9313 58.6609 74.7324 59.0244C75.2605 59.2611 75.2428 59.6619 74.7148 59.5527C73.8048 59.3891 73.1303 59.4623 72.9482 59.7354C72.6396 60.2265 72.9496 60.6281 73.9863 61.083C75.4431 61.7205 75.8074 62.7587 74.915 63.6328C74.3866 64.1784 73.2934 64.2513 72.4561 63.8145C71.8567 63.5057 71.8558 63.5042 72.001 63.123C72.092 62.9047 72.2384 62.9225 72.8564 63.2314C73.8398 63.7231 74.5506 63.5045 74.5508 62.7217C74.5507 62.2484 74.4228 62.1212 73.5488 61.666C73.003 61.393 72.4387 61.0282 72.3291 60.8643C71.9837 60.3912 72.0381 59.6989 72.4922 59.2256ZM91.0693 58.8066C92.3442 58.8066 92.5078 58.843 92.4531 59.1162C92.3982 59.3885 92.1976 59.4434 91.3428 59.4434C90.7787 59.4435 90.3043 59.5168 90.2861 59.626C90.286 59.7179 90.2496 60.0816 90.2314 60.3906L90.1592 60.9922H91.1426C91.8887 60.9922 92.1257 61.0646 92.126 61.2646C92.1257 61.4647 91.9065 61.5381 91.2148 61.5381C90.6148 61.5382 90.3043 61.6113 90.2861 61.7568C90.268 61.8851 90.2496 62.3035 90.2314 62.667L90.1953 63.3594H91.3242C92.1615 63.3594 92.4712 63.4327 92.5625 63.6328C92.6896 63.9968 92.1436 64.1064 90.6689 64.0518L89.4854 63.9971L89.4668 61.9023C89.4486 60.7557 89.4669 59.5902 89.5215 59.2979C89.6125 58.8064 89.632 58.8066 91.0693 58.8066ZM83.0742 58.8428C83.711 58.8974 84.4397 59.0794 84.6953 59.2432C85.3145 59.6438 85.5693 60.282 85.5693 61.4111C85.5691 63.1588 84.8224 63.9059 83.0381 63.9971L81.9268 64.0518V58.752L83.0742 58.8428ZM66.8467 58.8066C68.1216 58.8066 68.2851 58.843 68.2305 59.1162C68.1755 59.3885 67.9385 59.4617 67.0293 59.498L65.8994 59.5527V60.9922H66.9014C67.6659 60.9922 67.9031 61.0463 67.9033 61.2646C67.9031 61.4829 67.6659 61.5381 66.9014 61.5381H65.8994V63.3594H67.1016C68.1397 63.3594 68.2851 63.3958 68.2305 63.6689C68.1756 63.9416 67.9387 63.9964 66.8105 64.0146C65.9566 64.0509 65.4096 63.9786 65.3174 63.8516C65.172 63.6107 65.1536 59.4318 65.2988 59.0615C65.3716 58.8795 65.7732 58.8067 66.8467 58.8066ZM58.6875 58.8066C59.3974 58.8066 59.8174 58.9163 60.2725 59.2256C61.037 59.7354 61.3466 60.318 61.3467 61.3193C61.3466 62.3026 60.9644 63.2503 60.3818 63.6328C59.834 63.9783 57.7598 64.142 57.6494 63.833C57.5404 63.5216 57.5223 59.1501 57.6309 58.9521C57.6855 58.8794 58.1599 58.8068 58.6875 58.8066ZM58.2871 61.3926C58.3417 63.6314 58.3065 63.5594 59.4707 63.3047C60.4359 63.1044 60.9272 61.6287 60.4355 60.3721C60.2346 59.8443 59.3977 59.3527 58.7061 59.3525H58.2324L58.2871 61.3926ZM84.4404 60.0088C84.0936 59.6446 82.6735 59.1344 82.6553 59.3711C82.5826 60.1727 82.6376 63.1725 82.7285 63.3232C82.9116 63.6136 84.1663 63.2496 84.5312 62.7949C85.0046 62.1941 84.95 60.592 84.4404 60.0088ZM74.6416 50.9746C105.53 50.9746 130.755 51.0118 130.7 51.0664C130.258 51.1932 18.8557 51.1934 18.584 51.0664C18.5802 51.0119 43.7849 50.9746 74.6416 50.9746ZM127.932 33.582C128.059 33.2726 128.769 33.3276 129.225 33.6914C129.334 33.8012 130.117 34.8942 130.937 36.1504C131.77 37.3825 132.497 38.3981 132.594 38.4082C132.667 38.4082 132.758 37.2785 132.776 35.8945L132.831 33.3994H133.924L133.96 37.1338C133.996 39.1915 133.942 40.9764 133.851 41.1221C133.723 41.3215 133.54 41.3402 133.122 41.2129C132.649 41.085 132.265 40.6104 131.046 38.7725C129.698 36.7148 129.225 36.2232 129.17 36.7695C129.152 36.8668 129.133 37.9384 129.115 39.1182C129.097 41.1394 129.078 41.3038 128.732 41.4131C127.896 41.6853 127.822 41.3378 127.822 37.498C127.822 35.5157 127.877 33.7503 127.932 33.582ZM147.364 33.3447C149.494 33.3993 149.951 33.4545 149.987 33.6729C150.078 34.2008 149.732 34.4557 148.967 34.4375C148.403 34.4195 148.184 34.4933 148.038 34.748C147.929 34.9529 147.856 36.4267 147.856 38.208C147.856 41.1567 147.838 41.3038 147.492 41.4131C146.674 41.6673 146.581 41.3016 146.581 37.9707C146.581 35.7856 146.508 34.7659 146.362 34.6201C146.234 34.4929 145.852 34.4014 145.488 34.4014C144.67 34.401 144.342 34.1094 144.596 33.6367C144.76 33.3272 144.998 33.3083 147.364 33.3447ZM19.1484 33.3447L21.5527 33.3994V33.8555C21.5527 34.2919 21.5152 34.3106 20.0957 34.3652C17.8387 34.4198 17.8184 34.4382 17.8184 35.4941C17.8184 36.5681 17.9839 36.6963 19.5488 36.751C20.7873 36.8056 21.3151 37.115 20.9326 37.5703C20.768 37.77 20.276 37.8621 19.3125 37.8984L17.9102 37.9531L17.8555 38.9912C17.8009 40.2107 17.7661 40.1928 20.0957 40.2656C21.5159 40.3203 21.5527 40.3393 21.5527 40.7764C21.5527 41.2309 21.5328 41.231 19.458 41.3584C16.254 41.5588 16.5624 41.9768 16.5078 37.5703C16.4715 35.516 16.526 33.7147 16.5986 33.5635C16.7263 33.3452 17.2016 33.3084 19.1484 33.3447ZM95.6221 33.5273C95.9679 33.1815 99.1169 33.2368 99.8838 33.6006C100.667 33.983 101.05 34.6752 101.05 35.7861C101.05 36.4958 100.958 36.7146 100.412 37.2607C100.067 37.6063 99.7759 38.007 99.7754 38.1348C99.7759 38.2813 100.121 39.0102 100.521 39.7744C100.94 40.5386 101.25 41.1755 101.214 41.2129C101.012 41.3763 100.194 41.4675 100.012 41.3584C99.901 41.2824 99.4642 40.5735 99.0283 39.7744C98.1725 38.1903 98.0629 38.0439 97.4619 38.0439C96.8983 38.0448 96.6787 38.5551 96.6787 39.9199C96.6787 41.1944 96.424 41.6132 95.7686 41.4131C95.4235 41.3038 95.4043 41.1541 95.4043 37.5156C95.4043 34.826 95.459 33.6949 95.6221 33.5273ZM64.8438 33.4727C65.244 33.2181 65.5171 33.291 65.79 33.709C66.1545 34.256 68.4491 40.5389 68.4492 40.958C68.4489 41.7406 67.4846 41.4858 67.0293 40.5938C66.7199 39.9567 66.7004 39.956 65.3711 39.9014C64.3166 39.8651 63.9693 39.9199 63.6963 40.1562C63.4964 40.3202 63.3496 40.5758 63.3496 40.7031C63.3489 41.0492 62.4937 41.5591 62.166 41.4316C62.0209 41.3767 61.8928 41.2306 61.8926 41.1035C61.8934 40.6288 64.6003 33.6378 64.8438 33.4727ZM114.582 33.3447C114.855 33.3815 115.219 34.1661 116.275 37.0791C117.022 39.0999 117.568 40.884 117.514 41.0488C117.331 41.5031 116.349 41.3216 116.349 40.8486C116.349 40.7029 116.185 40.4298 115.984 40.2295C115.693 39.9385 115.382 39.8652 114.235 39.8652H112.852L112.578 40.5752C112.269 41.3759 112.068 41.5044 111.395 41.377L110.921 41.2861L111.613 39.3555C113.561 33.913 113.891 33.2364 114.582 33.3447ZM34.4834 33.2539C35.0297 33.1631 36.449 33.6183 36.7051 33.9824C36.8323 34.146 36.941 34.3462 36.9414 34.4375C36.9406 34.7104 36.0486 34.8022 35.1748 34.6201C33.9558 34.3475 33.4089 34.6204 33.3359 35.5303C33.2632 36.3128 33.483 36.4957 34.8477 36.6777C36.1586 36.8598 36.8694 37.2613 37.1973 37.9531C37.7979 39.2097 37.3057 40.5578 36.0674 41.0859C34.5194 41.7405 32.1158 41.2121 32.1152 40.2109C32.1153 39.7197 32.2083 39.7195 34.3555 39.9561C35.3194 40.0834 35.5397 40.0466 35.8486 39.7744C36.6317 39.0642 36.0859 38.1168 34.793 37.9346C33.3368 37.7341 32.4073 37.2422 32.0977 36.4775C31.4425 34.93 32.4082 33.6366 34.4834 33.2539ZM2.1377 33.3086C3.88506 33.3086 4.17788 33.3639 4.72363 33.7275C5.99851 34.5835 6.10833 36.2777 4.96094 37.3887L4.32324 38.0078L5.05176 39.4824C5.47061 40.2837 5.79883 41.0314 5.79883 41.1406C5.79764 41.2675 5.52457 41.3224 5.125 41.2861C4.45238 41.2315 4.39564 41.1755 3.61328 39.6836C2.86674 38.2634 2.73871 38.1347 2.19238 38.0801C1.42855 38.0077 1.28187 38.3365 1.26367 40.2842L1.24512 41.3408L0.662109 41.2861L0.0615234 41.2314L0.00683594 37.6797C-0.0113596 35.7326 0.0069949 33.9482 0.0615234 33.709C0.152529 33.327 0.245606 33.3086 2.1377 33.3086ZM50.2549 33.3086C52.6584 33.3086 52.7687 33.3274 52.8779 33.6914C53.0234 34.1646 52.8229 34.329 51.8398 34.4746C51.3126 34.5657 51.0932 34.7119 50.9658 35.0576C50.8751 35.2938 50.802 35.5664 50.8018 35.6396C50.8199 35.7152 50.8199 37.0257 50.8018 38.5537L50.7832 41.3408L50.2002 41.2861L49.5996 41.2314L49.5449 37.9531C49.5085 35.6219 49.4354 34.6561 49.2715 34.5469C49.1607 34.4743 48.7606 34.4014 48.3975 34.4014C47.5976 34.4009 47.1605 34.0003 47.5049 33.582C47.687 33.3635 48.2346 33.3086 50.2549 33.3086ZM78.7578 33.6006C78.8852 33.273 79.6491 33.2001 79.832 33.5088C79.9049 33.6003 79.9414 34.7114 79.9414 35.9678C79.9232 37.2059 79.9962 38.5542 80.1055 38.9551C80.3604 39.883 80.9626 40.3195 81.8359 40.1562C82.9283 39.9377 83.0919 39.4638 83.2012 36.2227L83.293 33.3994H84.3857L84.4404 36.3135C84.4951 39.6096 84.3489 40.1566 83.2197 40.9033C82.3999 41.449 80.8156 41.4859 79.96 40.958C78.9226 40.3207 78.6485 39.4273 78.6484 36.46C78.6484 35.0423 78.7033 33.7687 78.7578 33.6006ZM114.345 35.8584C114.253 35.863 114.053 36.2804 113.89 36.8057C113.38 38.5528 113.563 38.9182 114.818 38.7002C115.529 38.5545 115.528 38.6267 114.854 36.8057C114.654 36.2959 114.436 35.8584 114.345 35.8584ZM65.2256 35.9131C65.1335 35.882 64.8787 36.4079 64.6611 37.0967C64.4427 37.7883 64.2608 38.3898 64.2607 38.4629C64.2629 38.6442 66.0382 38.6078 66.1543 38.4268C66.2818 38.2264 65.4623 35.9859 65.2256 35.9131ZM99.7021 36.0957C100.03 34.8573 98.5366 34.0008 97.0615 34.6016C96.6802 34.747 96.6428 34.8578 96.752 35.458C96.8066 35.8221 96.8613 36.3137 96.8613 36.5322C96.8614 36.8959 96.9534 36.9511 97.6621 36.9512C98.8088 36.9512 99.574 36.6415 99.7021 36.0957ZM4.10449 34.875C3.84832 34.5293 2.42836 34.3105 1.75488 34.5107C1.57339 34.5662 1.40918 34.785 1.40918 35.0029C1.35473 35.8395 1.48271 36.6772 1.68262 36.8242C1.97458 37.0422 3.71914 36.878 4.0498 36.6055C4.39582 36.3141 4.43226 35.3121 4.10449 34.875ZM106.44 6.28125C106.586 5.88085 108.643 5.88178 109.19 6.26367C109.409 6.40935 110.302 7.6656 111.176 9.03125C114.549 14.3264 117.255 18.3756 117.368 18.3203C117.423 18.2657 117.477 15.7699 117.459 12.7832C117.459 9.79855 117.514 7.06796 117.587 6.71875L117.732 6.08105H120.446L120.501 15.2783C120.556 25.568 120.628 24.9307 119.244 24.9307C118.007 24.9305 117.695 24.6752 116.421 22.709C110.757 13.9311 109.537 12.1458 109.409 12.4736C109.318 12.6802 109.264 15.4282 109.282 18.6113C109.282 22.8144 109.227 24.4728 109.082 24.6211C108.953 24.7482 108.425 24.8395 107.897 24.8213C106.169 24.8037 106.331 25.7471 106.331 15.5703C106.331 10.6231 106.386 6.45564 106.44 6.28125ZM39.1455 6.35449C40.5656 5.84472 43.1335 5.86263 44.5361 6.37207C46.4302 7.08234 48.1787 9.25002 48.2881 11.0166L48.3242 11.7266L47.1592 11.7812C45.8308 11.8357 45.5015 11.6536 44.9189 10.3975C44.5183 9.55992 43.9531 9.08657 42.9697 8.75879C41.3309 8.19504 39.419 8.94119 38.6543 10.416C37.7988 12.0383 37.8169 18.9021 38.6543 20.5234C39.0548 21.2879 39.7471 21.8347 40.6025 22.0898C42.5874 22.6726 44.2817 21.8892 45.2471 19.9775L45.7021 19.085L47.0137 19.1396L48.3242 19.1943L48.2881 19.832C48.2331 20.688 47.6143 22.0538 46.9043 22.873C45.7023 24.2384 43.9534 24.9306 41.6592 24.9307C39.8024 24.9304 38.4536 24.4392 37.252 23.3105C35.4676 21.6352 34.9207 19.6124 35.0117 14.9873C35.0481 13.3855 35.1749 11.6373 35.2842 11.0898C35.7394 8.832 37.1792 7.06509 39.1455 6.35449ZM141.791 5.99023C142.372 5.99023 142.954 6.0631 143.084 6.13574C143.284 6.28144 149.859 24.1117 149.859 24.5488C149.859 24.6578 149.804 24.7494 149.731 24.7676C149.637 24.768 149.237 24.8036 148.803 24.876C148.366 24.9304 147.746 24.913 147.4 24.8584C146.819 24.7493 146.763 24.6746 146.217 23.0371C145.907 22.0902 145.525 21.2705 145.379 21.2158C145.004 21.0706 138.862 21.0704 138.495 21.2158C138.349 21.2739 138.002 21.9826 137.729 22.7998C137.475 23.6191 137.147 24.4027 137.02 24.5303C136.562 25.0393 134.016 25.0214 134.015 24.5303C134.016 24.2891 140.038 7.58728 140.479 6.57324C140.734 6.00894 140.791 5.99025 141.791 5.99023ZM128.296 5.99023C129.57 5.99024 129.607 6.00841 129.698 6.48145C129.753 6.77512 129.808 10.8548 129.808 15.5703C129.808 22.3265 129.752 24.2206 129.57 24.4756C129.295 24.8392 127.84 25.0034 127.148 24.7305L126.729 24.585V15.4062C126.729 10.3798 126.785 6.20163 126.857 6.11719C126.914 6.0446 127.569 5.9903 128.296 5.99023ZM57.3037 6.26367C58.3781 5.84494 61.5644 5.9904 62.6943 6.5C64.1329 7.15556 65.0797 8.04838 65.7354 9.35938C66.2817 10.4702 66.3188 10.7073 66.4463 13.3115C66.592 16.2615 66.5557 17.0269 66.2461 19.376C65.9 21.9618 64.9524 23.3827 62.9492 24.3115C61.9121 24.7845 61.6191 24.8398 59.7988 24.8398C58.0151 24.8398 57.6855 24.7856 56.7568 24.3486C55.5006 23.7657 54.1707 22.4722 53.6426 21.3252C53.2603 20.5059 53.2425 20.2312 53.2607 15.4609C53.2607 10.8553 53.297 10.3789 53.6426 9.63281C54.2981 8.15797 55.7015 6.86488 57.3037 6.26367ZM88.957 8.01172C90.6324 6.15435 93.3647 5.46274 96.2236 6.20898C97.8626 6.62788 99.3196 7.86655 100.012 9.43262C100.594 10.7622 100.868 13.1478 100.759 16.1523C100.65 19.4303 100.431 20.7423 99.8115 21.8896C99.2287 22.982 98.3721 23.7471 97.043 24.3662C96.1515 24.7846 95.8221 24.8398 94.0381 24.8398C92.2726 24.8398 91.9254 24.785 91.0332 24.3662C89.8133 23.8014 88.4835 22.5084 87.9189 21.3613C87.4274 20.3231 87.2267 18.0462 87.3359 14.3135C87.427 10.4714 87.701 9.41367 88.957 8.01172ZM23.0273 6.1543C23.5914 5.95416 24.7195 6.08128 24.9941 6.37207C25.1216 6.51786 25.5049 7.35616 25.8145 8.2666C26.1425 9.15958 27.5448 13.0204 28.9287 16.8262C30.3125 20.6317 31.5142 23.9649 31.5693 24.2393L31.6963 24.749H30.6953C29.0392 24.7489 28.8558 24.6024 28.3096 22.9639C28.0364 22.1626 27.6714 21.3797 27.4893 21.2158C27.2158 20.9795 26.6497 20.9238 23.9385 20.9238C22.1542 20.9239 20.5502 20.9972 20.3682 21.1064C20.1677 21.218 19.8396 21.8918 19.5488 22.7822C19.2757 23.6195 18.9295 24.4022 18.7656 24.5117C18.3627 24.8386 16.1813 24.8208 16.1797 24.5117C16.1822 24.3775 17.292 21.2111 18.6562 17.4639C20.0219 13.7129 21.4796 9.65153 21.917 8.4668C22.444 6.95844 22.7906 6.24768 23.0273 6.1543ZM1.9375 6.19043C2.39259 5.91743 3.48491 5.95417 3.9043 6.24512C4.23212 6.50009 4.25073 6.84636 4.3418 14.3135L4.43262 22.1084L8.60352 22.1631C11.3136 22.1813 12.8622 22.2722 13.0293 22.3994C13.1749 22.5272 13.2656 22.9829 13.2656 23.5654C13.2656 24.4024 13.2109 24.5304 12.8652 24.6396C12.1269 24.8214 2.34109 24.7666 1.95605 24.5664C1.62901 24.3842 1.60938 24.0672 1.60938 15.3691C1.60938 7.00185 1.62897 6.3553 1.9375 6.19043ZM73.749 5.99023C74.7137 5.99023 74.9879 6.04483 75.0791 6.28125C75.1519 6.44745 75.1885 9.99841 75.1885 14.1494C75.1703 18.4944 75.2431 21.7692 75.334 21.8711C75.4252 21.9621 77.2285 22.0348 79.3223 22.0166C81.5416 22.0166 83.3441 22.0902 83.6387 22.1992C84.1122 22.3631 84.1308 22.4362 84.0762 23.5107L84.0215 24.6582L78.3027 24.7129C74.2422 24.7493 72.5106 24.6945 72.3467 24.5488C72.0015 24.2383 71.9657 6.58606 72.3105 6.20898C72.4379 6.08159 73.0394 5.99037 73.749 5.99023ZM93.9473 8.54004C93.6918 8.55852 93.1627 8.66802 92.7627 8.81348C91.5981 9.23274 90.778 10.2524 90.5049 11.6357C90.2136 13.0389 90.2132 18.4289 90.4863 19.4492C91.1238 21.8344 93.6923 22.9633 95.8047 21.7988C97.3344 20.9611 97.8082 19.4854 97.79 15.5156C97.7718 13.0389 97.5344 11.1446 97.1338 10.3613C96.6055 9.32347 95.2037 8.52195 93.9473 8.54004ZM62.2754 9.61426C61.3468 8.68596 60.2174 8.3941 58.8701 8.72168C57.8508 8.95867 57.0303 9.59663 56.5752 10.5068C56.1749 11.3258 56.1562 11.5644 56.1562 15.1875C56.1563 17.2815 56.2289 19.3213 56.3018 19.7041C56.4839 20.5597 57.3586 21.5798 58.2324 21.9443C59.2337 22.363 60.6548 22.3076 61.5654 21.8164C63.1496 20.9241 63.4414 19.9036 63.4414 15.2783C63.4232 11.6906 63.186 10.5067 62.2754 9.61426ZM24.0107 10.7256C23.9196 10.7271 23.7742 10.8721 23.6836 11.0352C23.5534 11.2982 21.9891 15.7174 21.1885 18.1191C21.0254 18.6102 21.5908 18.7392 23.9561 18.7393C26.0656 18.7393 26.3961 18.7018 26.5059 18.4297C26.6333 18.0837 24.2475 10.7256 24.0107 10.7256ZM141.919 11.126C141.607 11.5167 139.302 18.2135 139.405 18.3926C139.534 18.6107 144.33 18.6103 144.469 18.3926C144.522 18.2983 144.012 16.5693 143.339 14.5498C142.429 11.8372 142.047 10.9444 141.919 11.126ZM90.5957 0.125977C90.7231 -0.0560074 92.7428 -0.0377914 93.291 0.162109C93.7461 0.325955 95.4391 4.02016 95.1494 4.20508C94.7116 4.49556 93.6005 4.3502 93.1455 3.93164C92.5083 3.36623 90.4764 0.336206 90.5957 0.125977Z" fill="white"/>
</svg>
